<?xml version="1.0" encoding="UTF-8"?>
<svg width="93px" height="83px" viewBox="0 0 93 83" version="1.1" xmlns="http://www.w3.org/2000/svg" xmlns:xlink="http://www.w3.org/1999/xlink">
    <title>Group 3</title>
    <defs>
        <polygon id="path-1" points="0 0 93 0 93 83 0 83"></polygon>
    </defs>
    <g id="Welcome" stroke="none" stroke-width="1" fill="none" fill-rule="evenodd">
        <g id="Desktop-HD---Account-empty" transform="translate(-674.000000, -572.000000)">
            <g id="Group-3" transform="translate(674.000000, 572.000000)">
                <mask id="mask-2" fill="white">
                    <use xlink:href="#path-1"></use>
                </mask>
                <g id="Clip-2"></g>
                <path d="M39.1144186,54.4265749 L14.3330461,40.1615989 L14.3330461,60.5301993 L44.6601444,77.9889997 L44.6601444,48.5113339 L41.6256906,53.7512926 C41.1228549,54.6265512 40.0009209,54.9279648 39.1231382,54.4265749 L39.1173251,54.4236767 L39.1144186,54.4265749 Z M39.3672897,50.3401027 L43.9974476,42.343949 L13.164607,24.5924297 L8.53444909,32.5885834 L39.3701963,50.3401027 L39.3672897,50.3401027 Z M78.672767,40.1615989 L53.8913946,54.4265749 L53.888488,54.4236767 L53.8826749,54.4265749 C53.0048923,54.930863 51.8829582,54.6294494 51.3801225,53.7512926 L48.3456687,48.5113339 L48.3456687,77.9889997 L78.672767,60.5301993 L78.672767,40.1615989 Z M79.8441127,24.5953279 L49.0112721,42.3468472 L53.64143,50.3430009 L84.4771772,32.5914816 L79.8470193,24.5953279 L79.8441127,24.5953279 Z M52.6764504,3.95719417 L80.9427942,20.2306278 L84.985826,19.9726873 L56.7194822,3.69925373 L52.6764504,3.95719417 Z M46.5029066,4.62668004 L24.1281699,17.506313 L16.1612754,22.0912768 L46.5,39.5558736 L76.8387246,22.0912768 L65.4159245,15.5152446 L46.4970934,4.62378183 L46.5029066,4.62668004 Z M12.0630189,20.2306278 L40.3293627,3.95719417 L36.2863309,3.69925373 L8.0199871,19.9726873 C8.0199871,19.9726873 12.0630189,20.2306278 12.0630189,20.2306278 L12.0630189,20.2306278 Z M83.5819552,23.7345603 L88.5114893,32.2494932 L88.5696206,32.345134 C89.0782694,33.2203926 88.7788932,34.3419988 87.9011106,34.8491851 L82.3553848,38.0430094 L82.3553848,61.588045 C82.3553848,62.315495 81.9310263,62.944406 81.3177411,63.2400231 L47.4446336,82.7391613 C47.4097548,82.7594488 47.374876,82.776838 47.3399973,82.7971255 L47.3051185,82.8145147 L47.2963988,82.8174129 L47.2644266,82.831904 L47.2557069,82.8377004 L47.2237347,82.8521914 L47.2121084,82.8579878 L47.1830428,82.8695807 C46.9883029,82.9478323 46.7877499,82.9913054 46.5842904,83 L46.5755707,83 L46.5377853,83 L46.5087197,83 L46.4941869,83 L46.4651212,83 L46.4273359,83 L46.4186162,83 C46.2180632,82.9913054 46.0146037,82.9478323 45.8198638,82.8695807 L45.7907982,82.8579878 L45.7791719,82.8521914 L45.7471997,82.8377004 L45.73848,82.831904 L45.7065078,82.8174129 L45.6977881,82.8145147 L45.6629093,82.7971255 C45.6280305,82.7797363 45.5931517,82.7594488 45.558273,82.7391613 L11.6851655,63.2400231 C11.0718803,62.9415077 10.6475218,62.3125968 10.6475218,61.588045 L10.6475218,38.0430094 L5.10179593,34.8491851 C4.22401333,34.3419988 3.92463714,33.2203926 4.433286,32.345134 L4.4914173,32.2494932 L9.42095139,23.7345603 L1.72146094,23.2447633 C1.12852169,23.2070866 0.567554665,22.8824874 0.247832525,22.331828 C-0.260816335,21.4565694 0.0385598508,20.3349632 0.916342455,19.827777 L34.88246,0.273572779 C35.1934625,0.0793928948 35.5684094,-0.0220443583 35.9637022,0.00403950681 L46.5,0.676423585 L57.0362978,0.00403950681 C57.4315906,-0.0220443583 57.803631,0.0793928948 58.11754,0.273572779 L92.0836575,19.827777 C92.9614401,20.3349632 93.2608163,21.4565694 92.7521675,22.331828 C92.4324453,22.8824874 91.8685717,23.2041884 91.2785391,23.2418651 L83.5790486,23.7345603 L83.5819552,23.7345603 Z" id="Fill-1" fill="#FFC627" mask="url(#mask-2)"></path>
            </g>
        </g>
    </g>
</svg>