<svg width="159" height="30" viewBox="0 0 159 30" fill="#000" xmlns="http://www.w3.org/2000/svg"><path fill-rule="evenodd" clip-rule="evenodd" d="M15 0h8v8h-8V0zm-4 23a4 4 0 100-8 4 4 0 000 8zm0 7c6.075 0 11-4.925 11-11S17.075 8 11 8 0 12.925 0 19s4.925 11 11 11zM85.978 9h3.07V12.1h-3.07V9zm-52.604 4.207a4.77 4.77 0 012.917.982V9.614h3.102v8.936c0 3.96-2.488 6.203-5.773 6.203-3.225 0-5.62-2.457-5.62-5.804 0-3.317 2.242-5.743 5.374-5.743zm-2.18 5.742c0 1.566 1.074 2.702 2.548 2.702s2.549-1.136 2.549-2.702-1.075-2.703-2.549-2.703-2.548 1.137-2.548 2.703zm8.998 0c0-3.347 2.426-5.804 5.773-5.804 3.286 0 5.589 2.426 5.558 5.804 0 .307-.03.552-.123 1.105h-8.014c.337 1.136 1.29 1.873 2.548 1.873.952 0 1.536-.215 1.873-.614h3.347c-.583 1.996-2.64 3.44-5.19 3.44-3.408 0-5.772-2.365-5.772-5.804zm7.953-1.075c0-1.013-.952-1.904-2.334-1.904-1.228 0-2.18.645-2.487 1.904h4.821zm10.01-4.729c-3.286 0-5.774 2.242-5.774 6.203v8.936h3.102v-4.576a4.77 4.77 0 002.917.983c3.132 0 5.374-2.426 5.374-5.742.03-3.347-2.365-5.804-5.62-5.804zm-.123 8.506c-1.474 0-2.55-1.136-2.55-2.702s1.076-2.703 2.55-2.703c1.474 0 2.548 1.137 2.548 2.703 0 1.566-1.075 2.702-2.548 2.702zm12.314-8.506c-3.286 0-5.804 2.518-5.804 5.804 0 3.285 2.518 5.803 5.804 5.803 3.285 0 5.803-2.517 5.803-5.803s-2.518-5.804-5.803-5.804zm0 8.506c-1.505 0-2.58-1.136-2.58-2.702s1.106-2.703 2.58-2.703c1.504 0 2.58 1.137 2.58 2.703 0 1.566-1.106 2.702-2.58 2.702zm11.27-3.838l-.101-.047c-.876-.408-1.589-.74-1.589-1.243 0-.4.4-.614.799-.614.768 0 1.013.614 1.013 1.259h3.04c0-2.488-1.505-4.023-3.992-4.023-1.996 0-3.838 1.106-3.838 3.347 0 2.16 1.779 2.934 3.186 3.546l.038.016.117.053c.832.371 1.45.647 1.45 1.175 0 .553-.492.738-.984.738-.736 0-1.105-.615-1.105-1.352h-2.979c0 2.488 1.536 4.085 4.115 4.085 1.996 0 4.146-1.137 4.146-3.348 0-2.026-1.843-2.917-3.317-3.592zm54.138-6.725h-3.07V21.22c0 2.119 1.197 3.317 3.316 3.317h2.272v-3.102h-1.904c-.399 0-.614-.215-.614-.614v-4.36h2.518V13.36h-2.518v-2.272zm-23.122 2.886a3.44 3.44 0 012.272-.829c1.873 0 3.009.952 3.624 3.593l1.811 7.8h-3.47l-1.689-7.217c-.215-.86-.583-1.228-1.32-1.228-.829 0-1.228.614-1.228 1.566v6.91h-3.102V9.644h3.102v4.33zm-23.584-.614h-3.07v11.178h3.07V13.36zm49.562 5.589c0-3.286 2.518-5.804 5.804-5.804 3.285 0 5.803 2.518 5.803 5.804 0 3.285-2.518 5.803-5.803 5.803-3.286 0-5.804-2.517-5.804-5.803zm3.224 0c0 1.566 1.075 2.702 2.58 2.702 1.504 0 2.579-1.136 2.579-2.702s-1.075-2.703-2.579-2.703c-1.474 0-2.58 1.137-2.58 2.703zm13.85-1.136l-.101-.047c-.876-.408-1.588-.74-1.588-1.243 0-.4.399-.614.798-.614.768 0 1.013.614 1.013 1.259h3.04c0-2.488-1.504-4.023-3.991-4.023-1.996 0-3.839 1.106-3.839 3.347 0 2.16 1.779 2.934 3.186 3.546l.038.016.117.053c.832.371 1.449.647 1.449 1.175 0 .553-.491.738-.982.738-.737 0-1.106-.615-1.106-1.352h-2.978c0 2.488 1.535 4.085 4.115 4.085 1.996 0 4.145-1.137 4.145-3.348-.031-2.026-1.842-2.917-3.316-3.592zm-35.528 1.136c0-3.286 2.518-5.804 5.803-5.804 3.286 0 5.804 2.518 5.804 5.804 0 3.285-2.518 5.803-5.804 5.803-3.285 0-5.803-2.517-5.803-5.803zm3.224 0c0 1.566 1.075 2.702 2.579 2.702 1.505 0 2.58-1.136 2.58-2.702s-1.075-2.703-2.58-2.703c-1.473 0-2.579 1.137-2.579 2.703zm-20.42-5.804c-3.286 0-5.773 2.242-5.773 6.203v8.936h3.101v-4.576a4.77 4.77 0 002.917.983c3.132 0 5.374-2.426 5.374-5.742 0-3.347-2.364-5.804-5.619-5.804zm-.123 8.506c-1.474 0-2.549-1.136-2.549-2.702s1.075-2.703 2.549-2.703 2.548 1.137 2.548 2.703c0 1.566-1.074 2.702-2.548 2.702zm-9.12-10.563h-3.071V21.22c0 2.119 1.198 3.317 3.316 3.317h2.273v-3.102H94.33c-.4 0-.614-.215-.614-.614v-4.36h2.518V13.36h-2.518v-2.272z" fill="#000"></path></svg>