<svg width="142" height="30" viewBox="0 0 142 30" fill="none" xmlns="http://www.w3.org/2000/svg">
<g id="Group">
<g id="Group_2">
<path id="Vector" d="M47.1145 9.9514H49.2635V19.9002H47.1145V18.4684C46.2975 19.6034 45.1442 20.1603 43.6336 20.1603C42.2596 20.1603 41.1063 19.6638 40.1317 18.6471C39.157 17.633 38.6789 16.3773 38.6789 14.9271C38.6789 13.477 39.157 12.2212 40.1317 11.2045C41.1063 10.1905 42.2623 9.69131 43.6336 9.69131C45.1468 9.69131 46.3001 10.2483 47.1145 11.3621V9.94877V9.9514ZM43.9725 18.1085C44.8683 18.1085 45.6249 17.809 46.2213 17.2127C46.8176 16.5953 47.1171 15.8387 47.1171 14.9245C47.1171 14.0103 46.8203 13.2537 46.2213 12.6547C45.6223 12.0373 44.8683 11.7404 43.9725 11.7404C43.0767 11.7404 42.32 12.0399 41.7237 12.6547C41.1273 13.251 40.8279 14.0076 40.8279 14.9245C40.8279 15.8413 41.1247 16.5953 41.7237 17.2127C42.32 17.809 43.0767 18.1085 43.9725 18.1085Z" fill="black"/>
<path id="Vector_2" d="M55.3925 13.9893C56.9241 14.3282 58.9154 14.9639 58.8734 17.0945C58.8734 18.0508 58.4951 18.8047 57.7595 19.3433C57.0239 19.8818 56.1071 20.1603 54.9932 20.1603C53.0228 20.1603 51.5701 19.2855 50.9343 17.8327L52.7838 16.7582C53.1227 17.7145 53.8583 18.19 54.9932 18.19C56.1281 18.19 56.685 17.8117 56.685 17.0761C56.685 16.4403 55.8496 16.062 54.7935 15.802C53.3013 15.4237 51.2916 14.8273 51.331 12.7388C51.331 11.8245 51.6699 11.0863 52.3661 10.5294C53.0622 9.97243 53.9371 9.69395 54.9722 9.69395C56.6246 9.69395 57.9565 10.4689 58.6527 11.7641L56.8426 12.7782C56.5038 12.0216 55.868 11.6433 54.9722 11.6433C54.1551 11.6433 53.5194 12.0005 53.5194 12.6967C53.5194 13.3535 54.3548 13.6924 55.3899 13.9893" fill="black"/>
<path id="Vector_3" d="M66.2293 12.0189H63.7624V16.795C63.7624 18.0691 64.5978 18.0481 66.2293 17.9693V19.9002C62.9454 20.2969 61.6135 19.4037 61.6135 16.795V12.0189H59.7824V9.94877H61.6135V7.79981L63.7624 7.16142V9.94615H66.2293V12.0163V12.0189Z" fill="black"/>
<path id="Vector_4" d="M75.608 9.9514H77.757V19.9002H75.608V18.4684C74.7936 19.6034 73.6377 20.1603 72.1271 20.1603C70.7531 20.1603 69.5998 19.6638 68.6252 18.6471C67.6505 17.633 67.1724 16.3773 67.1724 14.9271C67.1724 13.477 67.6505 12.2212 68.6252 11.2045C69.5998 10.1905 70.7558 9.69131 72.1271 9.69131C73.6403 9.69131 74.7936 10.2483 75.608 11.3621V9.94877V9.9514ZM72.466 18.1085C73.3618 18.1085 74.1184 17.809 74.7148 17.2127C75.3111 16.5953 75.6106 15.8387 75.6106 14.9245C75.6106 14.0103 75.3111 13.2537 74.7148 12.6547C74.1184 12.0373 73.3618 11.7404 72.466 11.7404C71.5701 11.7404 70.8135 12.0399 70.2172 12.6547C69.6208 13.251 69.3214 14.0076 69.3214 14.9245C69.3214 15.8413 69.6182 16.5953 70.2172 17.2127C70.8135 17.809 71.5701 18.1085 72.466 18.1085Z" fill="black"/>
<path id="Vector_5" d="M89.1743 13.7922V19.9002H87.0254V14.0103C87.0254 12.5181 86.1689 11.7011 84.7976 11.7011C83.2844 11.7011 82.2703 12.6363 82.2703 14.5672V19.9002H80.1214V9.95141H82.2703V11.2256C82.9271 10.2115 83.9411 9.69395 85.3545 9.69395C87.6427 9.69395 89.1743 11.2466 89.1743 13.7922Z" fill="black"/>
<path id="Vector_6" d="M99.2624 9.9514H101.411V19.9002H99.2624V18.4684C98.448 19.6034 97.2921 20.1603 95.7815 20.1603C94.4075 20.1603 93.2542 19.6638 92.2796 18.6471C91.3049 17.633 90.8268 16.3773 90.8268 14.9271C90.8268 13.477 91.3049 12.2212 92.2796 11.2045C93.2542 10.1905 94.4101 9.69131 95.7815 9.69131C97.2947 9.69131 98.448 10.2483 99.2624 11.3621V9.94877V9.9514ZM96.1178 18.1085C97.0136 18.1085 97.7702 17.809 98.3665 17.2127C98.9629 16.5953 99.2624 15.8387 99.2624 14.9245C99.2624 14.0103 98.9629 13.2537 98.3665 12.6547C97.7702 12.0373 97.0136 11.7404 96.1178 11.7404C95.2219 11.7404 94.4653 12.0399 93.869 12.6547C93.2726 13.251 92.9731 14.0076 92.9731 14.9245C92.9731 15.8413 93.27 16.5953 93.869 17.2127C94.4653 17.809 95.2219 18.1085 96.1178 18.1085Z" fill="black"/>
<path id="Vector_7" d="M117.949 13.7922V19.9002H115.8V14.0103C115.8 12.5181 114.944 11.701 113.572 11.701C112.059 11.701 111.045 12.6363 111.045 14.5672V19.9002H108.896V5.97134H111.045V11.2255C111.702 10.2115 112.716 9.69394 114.129 9.69394C116.417 9.69394 117.949 11.2466 117.949 13.7922Z" fill="black"/>
<path id="Vector_8" d="M126.91 9.9514H129.059V19.9002H126.91V18.6261C126.253 19.6401 125.239 20.1577 123.826 20.1577C121.538 20.1577 120.006 18.6051 120.006 16.0594V9.9514H122.155V15.8414C122.155 17.3335 123.011 18.1506 124.383 18.1506C125.896 18.1506 126.91 17.2153 126.91 15.2844V9.9514Z" fill="black"/>
<path id="Vector_9" d="M140.547 11.2045C141.522 12.2186 142 13.4533 142 14.9271C142 16.4009 141.522 17.633 140.547 18.6471C139.573 19.6611 138.419 20.1603 137.045 20.1603C135.532 20.1603 134.379 19.6034 133.564 18.4684V19.9002H131.415V5.97134H133.564V11.3621C134.379 10.2483 135.535 9.69131 137.045 9.69131C138.419 9.69131 139.573 10.1878 140.547 11.2045ZM136.706 18.1085C137.602 18.1085 138.359 17.809 138.955 17.2127C139.552 16.5953 139.851 15.8387 139.851 14.9245C139.851 14.0103 139.554 13.2537 138.955 12.6547C138.359 12.0373 137.602 11.7404 136.706 11.7404C135.811 11.7404 135.054 12.0399 134.458 12.6547C133.861 13.251 133.562 14.0076 133.562 14.9245C133.562 15.8413 133.859 16.5953 134.458 17.2127C135.054 17.809 135.811 18.1085 136.706 18.1085Z" fill="black"/>
</g>
<g id="Clip path group">
<mask id="mask0_4971_28" style="mask-type:luminance" maskUnits="userSpaceOnUse" x="0" y="0" width="29" height="30">
<g id="clippath">
<path id="Vector_10" d="M14.3704 15.3948H14.2075C14.1943 15.3948 14.1812 15.3948 14.1681 15.3948H14.0998C14.0998 15.3948 14.0788 15.3948 14.0709 15.3948H14.0341C14.0341 15.3948 14.0131 15.3948 14.0052 15.3948H13.9658C13.9658 15.3948 13.9474 15.3948 13.9369 15.3948C13.9211 15.3948 13.9054 15.3948 13.8896 15.3948H13.8712C13.8554 15.3948 13.8371 15.3948 13.8187 15.3948C13.8134 15.3948 13.8055 15.3948 13.8003 15.3948C13.7766 15.3948 13.7556 15.3948 13.7346 15.3948C13.7293 15.3948 13.7267 15.3948 13.7241 15.3948C13.7057 15.3948 13.6847 15.3948 13.6663 15.3948C13.661 15.3948 13.6584 15.3948 13.6532 15.3948C13.6348 15.3948 13.6164 15.3948 13.598 15.3948C13.5927 15.3948 13.5849 15.3948 13.5796 15.3948C13.5638 15.3948 13.5481 15.3948 13.5323 15.3948H13.506C13.4903 15.3948 13.4771 15.3948 13.464 15.3948C13.4561 15.3948 13.4482 15.3948 13.4377 15.3948C13.4246 15.3948 13.4088 15.3948 13.3931 15.3948C13.3852 15.3948 13.3773 15.3948 13.3721 15.3948C13.3563 15.3948 13.3405 15.3948 13.3221 15.3948C13.3169 15.3948 13.309 15.3948 13.3038 15.3948C13.288 15.3948 13.2696 15.3948 13.2538 15.3948C13.2486 15.3948 13.2433 15.3948 13.2355 15.3948C13.1908 15.3948 13.1435 15.3948 13.0989 15.3974H13.091C13.0699 15.3974 13.0516 15.3974 13.0305 15.3974C13.0253 15.3974 13.02 15.3974 13.0174 15.3974C12.999 15.3974 12.9806 15.3974 12.9622 15.3974C12.957 15.3974 12.9544 15.3974 12.9491 15.3974C12.9307 15.3974 12.9097 15.3974 12.8913 15.3974C12.8913 15.3974 12.8887 15.3974 12.886 15.3974C12.865 15.3974 12.844 15.3974 12.823 15.3974H12.8177C12.7967 15.3974 12.7757 15.3974 12.7521 15.3974H12.7494C12.7284 15.3974 12.7074 15.3974 12.6864 15.3974H12.6811C12.5892 15.4 12.4972 15.4027 12.4053 15.4079H12.4027C12.3816 15.4079 12.358 15.4079 12.337 15.4106H12.3344C12.3133 15.4106 12.2923 15.4106 12.2713 15.4106C12.2687 15.4106 12.2661 15.4106 12.2608 15.4106C12.2398 15.4106 12.2214 15.4106 12.2004 15.4106C12.2004 15.4106 12.1951 15.4106 12.1925 15.4106C12.1715 15.4106 12.1505 15.4106 12.1295 15.4132H12.1242C11.9876 15.4184 11.851 15.4263 11.717 15.4316H11.7091C11.6645 15.4316 11.6224 15.4368 11.5778 15.4395H11.5751C7.2772 15.6654 3.49943 16.4036 0.838183 17.4544C0.207679 17.7093 -0.128589 18.4028 0.0500536 19.057C0.746234 21.4529 2.02825 23.6018 3.73324 25.3357C3.749 25.3515 3.76477 25.3673 3.78053 25.3856C3.78053 25.3856 3.78053 25.3856 3.78316 25.3883C3.79892 25.404 3.81468 25.4198 3.83044 25.4382C3.88036 25.4881 3.9329 25.538 3.98282 25.5879C3.99858 25.6037 4.01434 25.6195 4.0301 25.6352C4.03536 25.6378 4.03799 25.6431 4.04062 25.6457C4.05375 25.6589 4.06688 25.6694 4.07739 25.6825C4.08264 25.6878 4.0879 25.6904 4.09053 25.6956C4.10104 25.7061 4.11418 25.7167 4.12468 25.7298C4.12994 25.735 4.13519 25.7403 4.14045 25.7456C4.15095 25.7561 4.16409 25.7666 4.1746 25.7771C4.17985 25.7823 4.18511 25.7876 4.19036 25.7928C4.2035 25.8033 4.214 25.8165 4.22714 25.827C4.23239 25.8322 4.23765 25.8349 4.24028 25.8401C4.25604 25.8559 4.27442 25.8717 4.29018 25.8874C6.94355 28.3175 10.477 29.7992 14.3572 29.7992C18.2374 29.7992 21.7709 28.3175 24.4243 25.8874C24.44 25.8717 24.4584 25.8559 24.4742 25.8401C24.4794 25.8349 24.4847 25.8322 24.4873 25.827C24.5004 25.8165 24.511 25.806 24.5241 25.7928C24.5293 25.7876 24.5346 25.7823 24.5399 25.7771C24.5504 25.7666 24.5635 25.7561 24.574 25.7456C24.5793 25.7403 24.5845 25.735 24.5898 25.7298C24.6003 25.7193 24.6134 25.7088 24.6239 25.6983C24.6292 25.693 24.6344 25.6878 24.6397 25.6851C24.6528 25.672 24.666 25.6615 24.6765 25.6484C24.6817 25.6457 24.6843 25.6405 24.687 25.6378C24.7027 25.6221 24.7185 25.6063 24.7343 25.5906C24.7868 25.5406 24.8367 25.4907 24.8866 25.4408C24.9024 25.425 24.9182 25.4093 24.9366 25.3909C24.9523 25.3751 24.9681 25.3567 24.9865 25.341C26.6888 23.6071 27.9735 21.4581 28.6697 19.0622C28.8457 18.4081 28.512 17.7119 27.8815 17.4597C25.2203 16.4062 21.4425 15.668 17.1446 15.4447C17.1446 15.4447 17.1393 15.4447 17.1367 15.4447C17.1157 15.4447 17.0947 15.4447 17.0736 15.4421C17.0526 15.4421 17.0316 15.4421 17.0106 15.4395C17.008 15.4395 17.0027 15.4395 17.0001 15.4395C16.9791 15.4395 16.9581 15.4395 16.937 15.4368C16.916 15.4368 16.8924 15.4368 16.8714 15.4342C16.7794 15.4289 16.6901 15.4263 16.5981 15.4211H16.5903C16.5692 15.4211 16.5509 15.4211 16.5298 15.4184C16.5272 15.4184 16.5246 15.4184 16.5193 15.4184C16.5009 15.4184 16.4799 15.4184 16.4615 15.4184C16.4589 15.4184 16.4536 15.4184 16.451 15.4184C16.43 15.4184 16.4116 15.4184 16.3906 15.4184H16.3853C16.3643 15.4184 16.3407 15.4184 16.3197 15.4158H16.317C16.2251 15.4132 16.1331 15.4079 16.0412 15.4053C16.0386 15.4053 16.0359 15.4053 16.0333 15.4053C16.0123 15.4053 15.9913 15.4053 15.9703 15.4053C15.9703 15.4053 15.9676 15.4053 15.965 15.4053C15.944 15.4053 15.923 15.4053 15.902 15.4053H15.8941C15.8731 15.4053 15.852 15.4053 15.831 15.4053C15.831 15.4053 15.8258 15.4053 15.8231 15.4053C15.8048 15.4053 15.7837 15.4053 15.7654 15.4053C15.7601 15.4053 15.7548 15.4053 15.7522 15.4053C15.7338 15.4053 15.7181 15.4053 15.697 15.4053C15.6918 15.4053 15.6865 15.4053 15.6813 15.4053C15.6603 15.4053 15.6419 15.4053 15.6209 15.4053C15.6209 15.4053 15.6156 15.4053 15.613 15.4053C15.5683 15.4053 15.521 15.4053 15.4764 15.4027C15.4711 15.4027 15.4632 15.4027 15.458 15.4027C15.4422 15.4027 15.4265 15.4027 15.4081 15.4027C15.4028 15.4027 15.3949 15.4027 15.3897 15.4027C15.3739 15.4027 15.3582 15.4027 15.3398 15.4027C15.3319 15.4027 15.324 15.4027 15.3161 15.4027C15.303 15.4027 15.2872 15.4027 15.2741 15.4027C15.2662 15.4027 15.2583 15.4027 15.2478 15.4027C15.2347 15.4027 15.2189 15.4027 15.2058 15.4027H15.1795C15.1637 15.4027 15.148 15.4027 15.1322 15.4027C15.127 15.4027 15.1191 15.4027 15.1138 15.4027C15.0954 15.4027 15.0771 15.4027 15.0587 15.4027C15.0534 15.4027 15.0508 15.4027 15.0455 15.4027C15.0271 15.4027 15.0087 15.4027 14.9877 15.4027C14.9851 15.4027 14.9798 15.4027 14.9746 15.4027C14.9536 15.4027 14.9299 15.4027 14.9089 15.4027C14.901 15.4027 14.8958 15.4027 14.8905 15.4027C14.8721 15.4027 14.8564 15.4027 14.838 15.4027H14.8196C14.8038 15.4027 14.7881 15.4027 14.7723 15.4027C14.7618 15.4027 14.7539 15.4027 14.7434 15.4027H14.704C14.704 15.4027 14.683 15.4027 14.6751 15.4027H14.6383C14.6383 15.4027 14.6173 15.4027 14.6094 15.4027H14.5411C14.528 15.4027 14.5149 15.4027 14.5017 15.4027H14.3388M4.30333 3.917C4.28756 3.93276 4.2718 3.9459 4.25341 3.96166C4.24553 3.96954 4.23765 3.9748 4.22977 3.98268C4.22189 3.99056 4.21138 3.99844 4.20349 4.00632C4.19561 4.0142 4.1851 4.02209 4.17722 4.02997C4.16934 4.03785 4.16146 4.0431 4.15621 4.05098C4.1457 4.05887 4.13781 4.06937 4.12731 4.07725C4.11942 4.08251 4.11418 4.08776 4.10892 4.09564C4.09841 4.10615 4.0879 4.11666 4.07739 4.12454C4.07214 4.1298 4.06688 4.13505 4.06163 4.14031C4.05112 4.15081 4.03798 4.16132 4.02747 4.17183C4.02485 4.17446 4.02222 4.17708 4.01959 4.17971C3.94604 4.25064 3.87511 4.32157 3.80418 4.39251C3.78842 4.40564 3.77528 4.4214 3.75951 4.43717C2.9635 5.24369 2.25944 6.13953 1.66309 7.1063C1.66309 7.1063 1.66309 7.1063 1.66309 7.10892C1.65258 7.12469 1.6447 7.14045 1.63419 7.15621C1.63419 7.15884 1.62894 7.16409 1.62894 7.16672C1.61843 7.18248 1.61055 7.19562 1.60267 7.21138C1.60004 7.21664 1.59742 7.21926 1.59479 7.22452C1.58691 7.24028 1.5764 7.25342 1.56852 7.26918C1.56589 7.27443 1.56326 7.27706 1.56063 7.28231C1.55275 7.29808 1.54224 7.31121 1.53436 7.32697C1.53436 7.32697 1.53174 7.33223 1.52911 7.33486C1.50021 7.38214 1.47394 7.42943 1.44504 7.47672C1.44241 7.48197 1.43716 7.48985 1.43453 7.49511C1.42665 7.50562 1.4214 7.51875 1.41352 7.52926C1.40826 7.53714 1.403 7.54502 1.40038 7.55553C1.39512 7.56604 1.38725 7.57655 1.38199 7.58706C1.37674 7.59756 1.37149 7.60545 1.36623 7.61595C1.36098 7.62646 1.35572 7.63697 1.35047 7.64485C1.34522 7.65273 1.33996 7.66587 1.33208 7.67638C1.32682 7.68426 1.32157 7.69477 1.31632 7.70265C1.30844 7.71579 1.30318 7.72629 1.2953 7.73943C1.29004 7.74731 1.28742 7.75519 1.28216 7.76307C1.27428 7.77883 1.2664 7.7946 1.25852 7.80773C1.25589 7.81299 1.25327 7.81824 1.25064 7.82087C1.24013 7.84188 1.22962 7.8629 1.21649 7.88129C1.21649 7.88129 1.21648 7.88655 1.21386 7.88655C1.20335 7.90493 1.19284 7.92332 1.18496 7.94171C1.18496 7.94697 1.17971 7.95222 1.17708 7.95485C1.1692 7.97061 1.15869 7.98638 1.15081 8.00477C1.15081 8.01002 1.14555 8.01527 1.14293 8.0179C1.13505 8.03366 1.12716 8.04943 1.11665 8.06782C1.11665 8.07307 1.1114 8.07832 1.10877 8.08095C1.10089 8.09934 1.09038 8.1151 1.0825 8.13349C1.0825 8.13612 1.07988 8.14137 1.07725 8.144C0.656914 8.96628 0.312763 9.83323 0.0500536 10.7343C-0.133843 11.3911 0.202425 12.0925 0.838183 12.3474C3.62816 13.4507 7.63974 14.2073 12.1925 14.3912H12.1951C12.2161 14.3912 12.2372 14.3912 12.2582 14.3939C12.2608 14.3939 12.2661 14.3939 12.2687 14.3939C12.2871 14.3939 12.3055 14.3939 12.3239 14.3939C12.3291 14.3939 12.3344 14.3939 12.3396 14.3939C12.358 14.3939 12.3764 14.3939 12.3948 14.3939H12.4027C12.4237 14.3939 12.4421 14.3939 12.4631 14.3939C12.4657 14.3939 12.4683 14.3939 12.471 14.3939C12.5629 14.3965 12.6522 14.3991 12.7442 14.4017C12.7442 14.4017 12.7494 14.4017 12.7521 14.4017C12.7731 14.4017 12.7915 14.4017 12.8125 14.4017H12.8256C12.844 14.4017 12.8624 14.4017 12.8808 14.4017C12.8861 14.4017 12.8913 14.4017 12.8966 14.4017C12.9149 14.4017 12.9333 14.4017 12.9544 14.4017C12.957 14.4017 12.9596 14.4017 12.9622 14.4017C12.9833 14.4017 13.0016 14.4017 13.0227 14.4017C13.0253 14.4017 13.0305 14.4017 13.0332 14.4017C13.0542 14.4017 13.0752 14.4017 13.0962 14.4017H13.1015C13.1698 14.4017 13.2381 14.4044 13.3064 14.407H13.3248C13.3405 14.407 13.3537 14.407 13.3694 14.407C13.3773 14.407 13.3878 14.407 13.3957 14.407C13.4088 14.407 13.4246 14.407 13.4377 14.407C13.4456 14.407 13.4535 14.407 13.4614 14.407C13.4771 14.407 13.4903 14.407 13.506 14.407H13.5271C13.5428 14.407 13.556 14.407 13.5717 14.407C13.5796 14.407 13.5901 14.407 13.598 14.407C13.6111 14.407 13.6243 14.407 13.6374 14.407C13.6453 14.407 13.6532 14.407 13.6637 14.407C13.6794 14.407 13.6952 14.407 13.711 14.407C13.7188 14.407 13.7267 14.407 13.732 14.407C13.7766 14.407 13.8187 14.407 13.8633 14.407H13.8949C13.908 14.407 13.9211 14.407 13.9343 14.407C13.9421 14.407 13.9527 14.407 13.9605 14.407H14.0026C14.0026 14.407 14.021 14.407 14.0288 14.407H14.0709C14.0709 14.407 14.0893 14.407 14.0971 14.407H14.1655C14.1812 14.407 14.1943 14.407 14.2075 14.407H14.528C14.5437 14.407 14.5569 14.407 14.57 14.407H14.6383C14.6383 14.407 14.6567 14.407 14.6646 14.407H14.7066C14.7066 14.407 14.725 14.407 14.7329 14.407H14.7749C14.7749 14.407 14.7907 14.407 14.8012 14.407C14.8143 14.407 14.8275 14.407 14.8406 14.407H14.8721C14.9168 14.407 14.9588 14.407 15.0035 14.407C15.0114 14.407 15.0193 14.407 15.0245 14.407C15.0403 14.407 15.056 14.407 15.0718 14.407C15.0797 14.407 15.0902 14.407 15.0981 14.407C15.1112 14.407 15.1243 14.407 15.1375 14.407C15.148 14.407 15.1559 14.407 15.1664 14.407C15.1821 14.407 15.1953 14.407 15.2084 14.407H15.2294C15.2452 14.407 15.2583 14.407 15.2741 14.407C15.282 14.407 15.2898 14.407 15.2977 14.407C15.3135 14.407 15.3266 14.407 15.3398 14.407C15.3503 14.407 15.3581 14.407 15.366 14.407C15.3818 14.407 15.3949 14.407 15.4107 14.407H15.4317C15.5 14.407 15.5683 14.4044 15.6366 14.4017H15.6419C15.6629 14.4017 15.6839 14.4017 15.7049 14.4017C15.7076 14.4017 15.7128 14.4017 15.7154 14.4017C15.7338 14.4017 15.7548 14.4017 15.7732 14.4017C15.7759 14.4017 15.7811 14.4017 15.7837 14.4017C15.8021 14.4017 15.8205 14.4017 15.8389 14.4017C15.8442 14.4017 15.8494 14.4017 15.8547 14.4017C15.8731 14.4017 15.8888 14.4017 15.9072 14.4017H15.9204C15.9414 14.4017 15.9598 14.4017 15.9808 14.4017C15.9834 14.4017 15.986 14.4017 15.9887 14.4017C16.0806 14.3991 16.1699 14.3965 16.2619 14.3939C16.2645 14.3939 16.2698 14.3939 16.2724 14.3939C16.2908 14.3939 16.3118 14.3939 16.3328 14.3939H16.3433C16.3617 14.3939 16.3801 14.3939 16.3985 14.3939C16.4037 14.3939 16.409 14.3939 16.4142 14.3939C16.4326 14.3939 16.451 14.3939 16.4694 14.3939C16.472 14.3939 16.4773 14.3939 16.4799 14.3939C16.5009 14.3939 16.5193 14.3939 16.5403 14.3912H16.5456C16.6822 14.386 16.8188 14.3807 16.9554 14.3728C21.3374 14.1601 25.194 13.4166 27.8973 12.3474C28.5304 12.0925 28.8667 11.3937 28.6854 10.7343C28.4227 9.83323 28.0759 8.96628 27.6582 8.14137C27.6582 8.14137 27.6556 8.13612 27.653 8.13349C27.6425 8.1151 27.6346 8.09671 27.6267 8.08095C27.6267 8.0757 27.6214 8.07307 27.6188 8.06782C27.6109 8.05205 27.6031 8.03629 27.5925 8.0179C27.5899 8.01265 27.5873 8.00739 27.5847 8.00214C27.5768 7.98375 27.5663 7.96798 27.5584 7.94959C27.5584 7.94697 27.5558 7.94172 27.5531 7.93909C27.5321 7.89706 27.5085 7.85502 27.4875 7.81561C27.4875 7.81561 27.4875 7.81299 27.4848 7.81036C27.4743 7.79197 27.4664 7.77358 27.4559 7.75782C27.4507 7.74994 27.448 7.74205 27.4428 7.73417C27.4349 7.72104 27.4297 7.71053 27.4218 7.69739C27.4165 7.68951 27.4113 7.679 27.406 7.67112C27.4008 7.66061 27.3929 7.65011 27.3876 7.6396C27.3824 7.62909 27.3771 7.61858 27.3719 7.6107C27.3666 7.60019 27.3614 7.59231 27.3561 7.58443C27.3509 7.57392 27.343 7.56341 27.3377 7.55291C27.3325 7.54502 27.3272 7.53714 27.3246 7.52926C27.3167 7.51612 27.3114 7.50562 27.3036 7.49248C27.3009 7.48723 27.2983 7.48197 27.2957 7.47672C27.2668 7.42943 27.2405 7.37952 27.2116 7.33223C27.2116 7.3296 27.2064 7.32435 27.2064 7.32172C27.1985 7.30596 27.188 7.29282 27.1801 7.27706C27.1801 7.2718 27.1748 7.26918 27.1722 7.26655C27.1643 7.25079 27.1538 7.23765 27.1459 7.22189C27.1433 7.21664 27.1407 7.21401 27.1381 7.20875C27.1302 7.19299 27.1197 7.17986 27.1118 7.16409C27.1118 7.16147 27.1092 7.15621 27.1065 7.15358C27.096 7.13782 27.0881 7.12206 27.0776 7.1063C27.0776 7.1063 27.0776 7.10367 27.075 7.10104C26.4787 6.13427 25.7746 5.23843 24.9812 4.43454C24.9812 4.43454 24.9812 4.43454 24.9786 4.43191C24.9654 4.41878 24.9497 4.40302 24.9366 4.38988C24.8656 4.31632 24.7921 4.24539 24.7185 4.17708C24.7159 4.17446 24.7132 4.17183 24.7106 4.1692C24.7001 4.15869 24.687 4.14819 24.6765 4.13505C24.6712 4.1298 24.6686 4.12717 24.6633 4.12192C24.6528 4.11141 24.6423 4.1009 24.6318 4.09302C24.6266 4.08776 24.6187 4.08251 24.6134 4.07463C24.6029 4.06675 24.595 4.05624 24.5845 4.04836C24.5766 4.04048 24.5714 4.03522 24.5635 4.02734C24.5556 4.01946 24.5451 4.01158 24.5372 4.00107C24.5293 3.99319 24.5188 3.98531 24.511 3.97743C24.5031 3.96954 24.4952 3.96166 24.4873 3.95641C24.4715 3.94065 24.4558 3.92751 24.4374 3.91175C21.784 1.48168 18.2506 0 14.3704 0C10.4901 0 6.95407 1.48168 4.30333 3.91175" fill="white"/>
</g>
</mask>
<g mask="url(#mask0_4971_28)">
<g id="Group_3">
<path id="Vector_11" d="M29.2818 14.9167C29.2818 23.1526 22.6063 29.8281 14.3704 29.8281C6.13441 29.8281 -0.541046 23.1526 -0.541046 14.9167C-0.541046 6.68071 6.13441 0.00525665 14.3704 0.00525665C22.6063 0.00525665 29.2818 6.68071 29.2818 14.9167Z" fill="#E6E6E6"/>
<path id="Vector_12" d="M27.0645 14.9167C27.0645 21.9257 21.3821 27.6108 14.373 27.6108C7.36389 27.6108 1.67886 21.9284 1.67886 14.9167C1.67886 7.90493 7.36126 2.22252 14.373 2.22252C21.3847 2.22252 27.0645 7.90493 27.0645 14.9167Z" fill="#B3B3B3"/>
<path id="Vector_13" d="M24.8446 14.9167C24.8446 20.7015 20.1552 25.3909 14.3704 25.3909C8.58549 25.3909 3.89612 20.7015 3.89612 14.9167C3.89612 9.1318 8.58549 4.44244 14.3704 4.44244C20.1552 4.44244 24.8446 9.1318 24.8446 14.9167Z" fill="#666666"/>
<path id="Vector_14" d="M22.6273 14.9167C22.6273 19.4773 18.931 23.1736 14.373 23.1736C9.81497 23.1736 6.11602 19.4773 6.11602 14.9167C6.11602 10.356 9.81234 6.6597 14.373 6.6597C18.9336 6.6597 22.6273 10.356 22.6273 14.9167Z" fill="#333333"/>
<path id="Vector_15" d="M20.4074 14.9167C20.4074 18.2505 17.7041 20.9537 14.3704 20.9537C11.0366 20.9537 8.33329 18.2505 8.33329 14.9167C8.33329 11.5829 11.0366 8.87961 14.3704 8.87961C17.7041 8.87961 20.4074 11.5829 20.4074 14.9167Z" fill="black"/>
</g>
</g>
</g>
</g>
</svg>
