<?xml version="1.0" encoding="UTF-8"?>
<svg width="15px" height="19px" viewBox="0 0 15 19" version="1.1" xmlns="http://www.w3.org/2000/svg" xmlns:xlink="http://www.w3.org/1999/xlink">
    <title>Group 3</title>
    <defs>
        <polygon id="path-1" points="0 0 15 0 15 19 0 19"></polygon>
    </defs>
    <g id="Welcome" stroke="none" stroke-width="1" fill="none" fill-rule="evenodd">
        <g id="iPhone-8-Plus---Menu" transform="translate(-21.000000, -120.000000)">
            <g id="Group-3" transform="translate(21.000000, 120.000000)">
                <mask id="mask-2" fill="white">
                    <use xlink:href="#path-1"></use>
                </mask>
                <g id="Clip-2"></g>
                <path d="M7.49908419,10.7181646 C6.05210941,10.7181646 4.87598449,9.51683775 4.87598449,8.0388573 C4.87598449,6.56087684 6.05210941,5.35955001 7.49908419,5.35955001 C8.94605898,5.35955001 10.1221839,6.56087684 10.1221839,8.0388573 C10.1221839,9.51683775 8.94605898,10.7181646 7.49908419,10.7181646 L7.49908419,10.7181646 Z M7.49908419,3.89793959 C5.26314183,3.89793959 3.44503633,5.75593875 3.44503633,8.0388573 C3.44503633,10.3217758 5.26314183,12.179775 7.49908419,12.179775 C9.73502656,12.179775 11.5531321,10.3217758 11.5531321,8.0388573 C11.5531321,5.75593875 9.73502656,3.89793959 7.49908419,3.89793959 L7.49908419,3.89793959 Z M8.03299957,17.3950348 C7.70399597,17.5877335 7.29508822,17.5877335 6.96058978,17.3922285 C3.55035411,15.4018659 1.43094817,11.6727716 1.43094817,7.65977402 C1.43094817,4.24241193 4.15341291,1.46161042 7.49908419,1.46161042 C10.8447555,1.46161042 13.5672202,4.24241193 13.5672202,7.65977402 C13.5672202,11.6727716 11.4478143,15.4016321 8.03208377,17.3950348 L8.03299957,17.3950348 Z M7.49908419,0 C3.36375847,0 0,3.43560298 0,7.65977402 C0,12.1954435 2.3950638,16.4111956 6.25404481,18.6630111 C6.63776787,18.8868129 7.06888394,19 7.49885524,19 C7.9290555,19 8.36200317,18.8877483 8.7482447,18.6620757 C12.6037914,16.4111956 15,12.1963789 15,7.65977402 C15,3.43653841 11.6362415,0 7.50091581,0 L7.49908419,0 Z" id="Fill-1" fill="#00303C" mask="url(#mask-2)"></path>
            </g>
        </g>
    </g>
</svg>